<?xml version="1.0" encoding="UTF-8"?>
<svg width="831px" height="693px" viewBox="0 0 831 693" version="1.1" xmlns="http://www.w3.org/2000/svg" xmlns:xlink="http://www.w3.org/1999/xlink">
    <!-- Generator: Sketch 52.5 (67469) - http://www.bohemiancoding.com/sketch -->
    <defs>
        <linearGradient x1="98.5610014%" y1="50%" x2="4.30253731%" y2="56.6010261%" id="about1">
            <stop stop-color="#F4FFF0" offset="0%"></stop>
            <stop stop-color="#E8FBF0" offset="100%"></stop>
        </linearGradient>
        <linearGradient x1="98.5610014%" y1="50%" x2="7.27432975%" y2="50%" id="about2">
            <stop stop-color="#E0FFD4" offset="0%"></stop>
            <stop stop-color="#EBFAEE" offset="100%"></stop>
        </linearGradient>
    </defs>
    <g id="Design" stroke="none" stroke-width="1" fill="none" fill-rule="evenodd">
        <g id="22_21_Demo_One_Page_Applanding" transform="translate(-132.000000, -1400.000000)">
            <g id="Features" transform="translate(132.000000, 1369.000000)">
                <g id="Block-1">
                    <g id="Left-Block">
                        <g id="AboutShape" transform="translate(0.000000, 31.000000)">
                            <path d="M56,47 C183,-14.6666667 285.666667,-14.6666667 364,47 C481.5,139.5 555,161.5 671.5,150.5 C788,139.5 851,261 825,417 C799,573 648,679.5 522,647.5 C396,615.5 314,555.5 214.5,600.5 C115,645.5 82,726.5 23.5,677.5 C-15.5,644.833333 -4.66666667,434.666667 56,47 Z" id="Path" fill="url(#about1)"></path>
                            <path d="M142.464844,143.941406 C250.698565,141.682858 327.837888,158.677649 373.882813,194.925781 C442.950199,249.297979 560.618077,263.73932 629.097656,257.273437 C697.577235,250.807555 726.085938,301.976562 714.583427,388.67489 C703.080917,475.373217 610.541492,542.97437 536.477742,524.164529 C462.413991,505.354687 357.072788,448.068192 298.585938,474.519531 C240.099087,500.970871 148.250023,560.036945 113.863281,531.234375 C90.9387871,512.032662 100.472641,382.935006 142.464844,143.941406 Z" id="Path" fill="url(#about2)"></path>
                        </g>
                    </g>
                </g>
            </g>
        </g>
    </g>
</svg>