<svg xmlns="http://www.w3.org/2000/svg" viewBox="0 0 368.88 206.97"><title>logo</title><path d="M198.05,145c12.94-3.24,25.88-6.42,38.82-9.41a2.37,2.37,0,0,0,1.78-2.19V123.14a1.37,1.37,0,0,0-1.78-1.37q-13,3-26,6.22V115.33q10.68-2.64,21.38-5.15a2.4,2.4,0,0,0,1.78-2.2V97.76a1.4,1.4,0,0,0-1.78-1.36q-10.69,2.5-21.38,5.14V89.92q13-3.19,26-6.22a2.37,2.37,0,0,0,1.78-2.19V71.29a1.37,1.37,0,0,0-1.78-1.37c-12.94,3-25.88,6.17-38.82,9.4a2.44,2.44,0,0,0-1.78,2.23v62.07A1.35,1.35,0,0,0,198.05,145Z" style="fill:#e72a7c"/><path d="M41.76,188.76q-5.11.53-10.23.92a.52.52,0,0,0-.47.51v16.35a.43.43,0,0,0,.47.43l2.92-.24a.54.54,0,0,0,.46-.51v-6q2.82-.24,5.64-.52a.54.54,0,0,0,.46-.51V196.5a.43.43,0,0,0-.46-.43q-2.82.28-5.64.52V193c2.28-.2,4.57-.41,6.85-.64a.54.54,0,0,0,.47-.52v-2.69A.43.43,0,0,0,41.76,188.76Z" style="fill:#e72a7c"/><path d="M58.33,186.81l-3,.4a.55.55,0,0,0-.47.53v10a3.53,3.53,0,0,1-3.08,3.5,2.63,2.63,0,0,1-3-2.75v-10a.41.41,0,0,0-.47-.41l-3,.34a.55.55,0,0,0-.47.52v10.2a6.08,6.08,0,0,0,7,6.06,8.17,8.17,0,0,0,7.06-7.77v-10.2A.42.42,0,0,0,58.33,186.81Z" style="fill:#e72a7c"/><path d="M72.54,198.39l-5.88.91V186.11a.4.4,0,0,0-.47-.4l-2.94.42a.56.56,0,0,0-.47.54V203a.39.39,0,0,0,.47.4c3.1-.44,6.19-.91,9.29-1.4a.57.57,0,0,0,.47-.54v-2.7A.39.39,0,0,0,72.54,198.39Z" style="fill:#e72a7c"/><path d="M85.16,196.26q-2.94.53-5.88,1V184.09a.4.4,0,0,0-.47-.39l-2.94.49a.58.58,0,0,0-.47.55v16.35a.38.38,0,0,0,.47.39q4.65-.76,9.29-1.59a.59.59,0,0,0,.47-.55v-2.7A.38.38,0,0,0,85.16,196.26Z" style="fill:#e72a7c"/><path d="M99,186.79c-2-.41-2.69-1-2.69-1.87a1.83,1.83,0,0,1,1.55-1.57,6.71,6.71,0,0,1,3.54.78c.22.13.66-.18.83-.48l1.27-2.16c.09-.19.14-.65-.15-.76a8.05,8.05,0,0,0-5.29-.8c-3.8.75-5.7,3.57-5.7,6,0,3,2.66,4.12,4.79,4.54,1.68.34,2.54,1,2.54,2A2,2,0,0,1,98,194.3a6.34,6.34,0,0,1-3.51-.68.71.71,0,0,0-.84.31c-.39.75-.77,1.51-1.16,2.27-.2.38-.12.46.12.66.57.46,2.35,1.46,5.56.83,3.63-.71,5.83-3.73,5.83-6.27C104,188.06,101,187.17,99,186.79Z" style="fill:#e72a7c"/><path d="M117.15,179.38v-2.69a.37.37,0,0,0-.47-.37q-5.48,1.2-11,2.32a.6.6,0,0,0-.47.57v2.69a.37.37,0,0,0,.47.38l3.53-.74v13.19a.38.38,0,0,0,.47.37l3-.63a.63.63,0,0,0,.47-.56V180.72l3.53-.77A.6.6,0,0,0,117.15,179.38Z" style="fill:#e72a7c"/><path d="M125.33,174.43a.39.39,0,0,0-.42-.17l-.25.05a.69.69,0,0,0-.42.37q-3.85,9.18-7.73,18.33c-.15.35,0,.63.42.55l2.72-.6a1.24,1.24,0,0,0,.89-.79c.29-.72.59-1.44.89-2.17l6.71-1.51.89,1.75c.23.42.42.52.87.42l2.74-.63a.54.54,0,0,0,.42-.74Zm-2.42,11.88c.62-1.49,1.23-3,1.85-4.49h0l1.87,3.65Z" style="fill:#e72a7c"/><path d="M142.72,173.85a4.32,4.32,0,0,1,3.34.46.45.45,0,0,0,.61-.15l1.93-2.46c.2-.25.2-.54,0-.69a7,7,0,0,0-6-.86,12,12,0,0,0-8.92,11c0,4.94,4,7.94,8.92,6.76a11.19,11.19,0,0,0,6-3.83c.17-.22.2-.55,0-.68l-1.92-1.58c-.15-.14-.47-.06-.64.13a6.83,6.83,0,0,1-3.32,2,3.74,3.74,0,0,1-4.86-3.86A6.61,6.61,0,0,1,142.72,173.85Z" style="fill:#e72a7c"/><path d="M159.37,174.48l5.78-8.67c.27-.44,0-.92-.45-.81l-3.11.77a1.09,1.09,0,0,0-.47.37l-5.48,8.19v-6.5a.45.45,0,0,0-.59-.44l-2.89.7a.79.79,0,0,0-.59.74v16.1a.44.44,0,0,0,.59.45l2.89-.7a.82.82,0,0,0,.59-.74v-7.36l5.71,6.35a.58.58,0,0,0,.44.06l3.41-.85c.47-.11.74-.72.47-1Z" style="fill:#e72a7c"/><path d="M192.62,158l-2.89.72a.7.7,0,0,0-.44.46l-2.13,8.91-.1,0-3.83-7.73c0-.13-.19-.22-.42-.16l-.44.11a.65.65,0,0,0-.42.37l-3.83,9.66-.1,0c-.71-2.61-1.41-5.22-2.12-7.84a.38.38,0,0,0-.45-.23l-2.89.72a.56.56,0,0,0-.44.71q2.32,7.71,4.67,15.43a.35.35,0,0,0,.44.23l.4-.1a.71.71,0,0,0,.42-.38q2.25-5.61,4.49-11.23l.08,0q2.25,4.48,4.52,9a.38.38,0,0,0,.42.17l.39-.1a.67.67,0,0,0,.45-.46l4.66-17.77C193.16,158.12,193,157.92,192.62,158Z" style="fill:#e72a7c"/><path d="M206.41,154.57q-5.11,1.26-10.23,2.55a.64.64,0,0,0-.47.58v16.36a.36.36,0,0,0,.47.35q5.12-1.29,10.23-2.55a.65.65,0,0,0,.47-.59v-2.69a.36.36,0,0,0-.47-.35l-6.85,1.7V166.6l5.64-1.41a.63.63,0,0,0,.46-.58v-2.69a.36.36,0,0,0-.46-.36l-5.64,1.4V159.9l6.85-1.7a.65.65,0,0,0,.47-.58v-2.7A.36.36,0,0,0,206.41,154.57Z" style="fill:#e72a7c"/><path d="M218.86,160c1.16-.9,2.86-2.69,2.86-4.59,0-2.6-2.39-4-5.31-3.31l-5.75,1.41a.65.65,0,0,0-.47.59v16.35a.36.36,0,0,0,.47.35l6.12-1.5c2.94-.72,5.39-3.31,5.39-6.07C222.17,161,220.17,160.24,218.86,160ZM214,156.25l1.93-.47A1.28,1.28,0,0,1,217.7,157a2.39,2.39,0,0,1-1.73,2.2l-1.93.47Zm2.25,9.65-2.25.55v-3.53l2-.49a1.5,1.5,0,0,1,2,1.23A2.45,2.45,0,0,1,216.29,165.9Z" style="fill:#e72a7c"/><path d="M237.24,147.16l-6,1.4a.62.62,0,0,0-.44.58v16.35a.35.35,0,0,0,.44.36l6-1.4a11.56,11.56,0,0,0,8.67-10.64C245.91,149.07,242,146.06,237.24,147.16ZM237,160.85l-2.37.55v-10l2.37-.55a3.71,3.71,0,0,1,4.82,3.88A6.38,6.38,0,0,1,237,160.85Z" style="fill:#e72a7c"/><path d="M259.62,142.22q-5.12,1.07-10.23,2.2a.61.61,0,0,0-.47.57v16.35a.37.37,0,0,0,.47.37q5.12-1.12,10.23-2.2a.61.61,0,0,0,.47-.57v-2.69a.37.37,0,0,0-.47-.37c-2.28.48-4.56,1-6.84,1.46V154c1.87-.4,3.75-.81,5.63-1.2a.62.62,0,0,0,.47-.57v-2.69a.38.38,0,0,0-.47-.37q-2.82.59-5.63,1.2v-3.06l6.84-1.46a.61.61,0,0,0,.47-.57v-2.69A.37.37,0,0,0,259.62,142.22Z" style="fill:#e72a7c"/><path d="M277.31,138.7l-3.29.62a.62.62,0,0,0-.42.36q-2,4.89-4.07,9.81l-.15,0-4.08-8.2a.38.38,0,0,0-.42-.19l-3.28.68a.53.53,0,0,0-.42.73q3.85,7.5,7.7,15.05a.38.38,0,0,0,.42.19l.25-.05a.6.6,0,0,0,.42-.35q3.87-9.07,7.76-18.12C277.87,138.92,277.68,138.63,277.31,138.7Z" style="fill:#e72a7c"/><path d="M290.45,136.36q-5.11.85-10.23,1.8a.59.59,0,0,0-.47.56v16.35a.38.38,0,0,0,.47.38q5.11-.94,10.23-1.8a.58.58,0,0,0,.47-.55v-2.69a.38.38,0,0,0-.47-.39q-3.42.57-6.84,1.19v-3.34l5.63-1a.58.58,0,0,0,.47-.55v-2.69a.4.4,0,0,0-.47-.39c-1.88.32-3.76.64-5.63,1v-3.06q3.42-.62,6.84-1.19a.57.57,0,0,0,.47-.55v-2.69A.38.38,0,0,0,290.45,136.36Z" style="fill:#e72a7c"/><path d="M304,147.89c-2,.29-3.92.58-5.88.89V135.59a.4.4,0,0,0-.47-.4l-2.94.47a.57.57,0,0,0-.47.54v16.35a.39.39,0,0,0,.47.4q4.64-.75,9.29-1.43a.55.55,0,0,0,.46-.54v-2.69A.39.39,0,0,0,304,147.89Z" style="fill:#e72a7c"/><path d="M314.36,132.57a10.42,10.42,0,0,0-8.86,10.11,7.54,7.54,0,0,0,8.86,7.67,10.23,10.23,0,0,0,8.89-9.91A7.71,7.71,0,0,0,314.36,132.57Zm0,13.83a4.24,4.24,0,0,1-4.91-4.27,5.84,5.84,0,0,1,4.91-5.61,4.31,4.31,0,0,1,4.94,4.36A5.75,5.75,0,0,1,314.36,146.4Z" style="fill:#e72a7c"/><path d="M332.67,130.84c-2,.17-4,.36-6,.56a.53.53,0,0,0-.46.52v16.35a.41.41,0,0,0,.46.42l2.92-.28a.55.55,0,0,0,.47-.52v-5.8l2.59-.24a6.16,6.16,0,0,0,5.51-6A5,5,0,0,0,332.67,130.84Zm-.22,7.43-2.35.21V134.7l2.35-.21a1.7,1.7,0,0,1,1.95,1.65A2.17,2.17,0,0,1,332.45,138.27Z" style="fill:#e72a7c"/><path d="M351.42,129.57q-5.12.23-10.23.59a.51.51,0,0,0-.47.5V147a.43.43,0,0,0,.47.44q5.12-.36,10.23-.59a.5.5,0,0,0,.47-.49v-2.69a.45.45,0,0,0-.47-.45q-3.42.15-6.85.37v-3.34c1.88-.12,3.76-.22,5.64-.31a.5.5,0,0,0,.47-.49v-2.69a.47.47,0,0,0-.47-.45c-1.88.09-3.76.19-5.64.31v-3.06c2.29-.14,4.57-.27,6.85-.37a.5.5,0,0,0,.47-.49V130A.45.45,0,0,0,351.42,129.57Z" style="fill:#e72a7c"/><path d="M368.44,134.5a5.31,5.31,0,0,0-5.39-5.29q-3.69.06-7.38.19a.49.49,0,0,0-.47.49v16.35a.45.45,0,0,0,.47.45l2.94-.09a.51.51,0,0,0,.47-.48v-6.3l1.7,0c1.1,2.15,2.19,4.32,3.29,6.49a.42.42,0,0,0,.39.21l3.29,0a.47.47,0,0,0,.42-.72l-3.39-6.25A5.47,5.47,0,0,0,368.44,134.5Zm-5.71,2.1-3.65.08v-3.85l3.65-.08a1.86,1.86,0,0,1,1.88,1.85A2,2,0,0,1,362.73,136.6Z" style="fill:#e72a7c"/><path d="M94.26,136.5c0-18.78-15-30.84-33.75-28.25a39.71,39.71,0,0,0-19.26,8.34c-10.1,1-20.2,1.7-30.3,2-.74,0-.75,1.18,0,1.15,9.58-.27,19.15-.9,28.73-1.83h0q1.8-.16,3.6-.36c.74-.08.74,1.08,0,1.16l-5,.49a37.3,37.3,0,0,0-11.19,22.25q-8.66.6-17.32.84a.58.58,0,0,0,0,1.16c5.73-.15,11.46-.44,17.19-.83h0l4.25-.31c1.71-.13,3.41-.27,5.11-.42.74-.06.74,1.09,0,1.16-3.15.28-6.3.51-9.45.73,0,.61,0,1.22,0,1.84,0,18.74,14.91,32.77,33.66,30.15S94.26,155.22,94.26,136.5ZM60.51,160.76a16.2,16.2,0,0,1-18.66-16.42c0-10.32,8.44-19.67,18.66-21.08s18.75,5.63,18.75,16S70.82,159.34,60.51,160.76Z" style="fill:#e72a7c"/><path d="M237.25,116.5q7-1.6,14-3.14c2.84-.62,5.69-1.23,8.53-1.83.74-.15.74,1,0,1.16-2.85.6-5.71,1.21-8.56,1.83v16a1.44,1.44,0,0,0,1.78,1.39q5.63-1.22,11.26-2.37a2.4,2.4,0,0,0,1.78-2.14V65.36a1.45,1.45,0,0,0-1.78-1.42q-5.62,1.14-11.26,2.37a2.43,2.43,0,0,0-1.78,2.16v43.74q-7,1.53-14,3.14C236.51,115.52,236.51,116.67,237.25,116.5Z" style="fill:#e72a7c"/><path d="M367.1,103.7q-11.16,0-22.32.75V54.38A1.7,1.7,0,0,0,343,52.71c-3.72.24-7.44.54-11.16.87a2,2,0,0,0-1.78,2V73.3q-12.35,1.17-24.68,2.94c-.75.11-.75,1.26,0,1.16,9.62-1.38,19.24-2.51,28.86-3.33.74-.07.74,1.09,0,1.15l-4.18.39v42a1.6,1.6,0,0,0,1.78,1.62c11.75-1.07,23.51-1.68,35.26-1.74a1.79,1.79,0,0,0,1.78-1.79V105.47A1.77,1.77,0,0,0,367.1,103.7Z" style="fill:#e72a7c"/><path d="M174.33,148.11l-1.94.48,3.25,2.46a2.33,2.33,0,0,0,1.22.16l1.5-.37a2.44,2.44,0,0,0,1.79-2.14V85.6a1.39,1.39,0,0,0-1.79-1.34l-11.25,2.82a2.43,2.43,0,0,0-1.78,2.22V92c-7.2,1.79-14.4,3.57-21.6,5.29-.74.18-.74,1.33,0,1.15q14.15-3.37,28.29-6.94c.74-.19.74,1,0,1.15l-6.69,1.66v28.24l-.09,0c-12.47-8.9-24.94-17.87-37.41-27l-2.35.53a2.34,2.34,0,0,0-1.78,2.09l.06,41.86q-9.93,2.22-19.86,4.26c-.75.15-.75,1.31,0,1.15,9.42-1.91,18.85-4,28.28-6.17.75-.17.75,1,0,1.16l-8.41,1.91,0,18.91a1.42,1.42,0,0,0,1.78,1.38q5.58-1.26,11.15-2.57a2.38,2.38,0,0,0,1.79-2.2v-35l.09,0q15.75,12.1,31.49,24c-8,2-16,4-24.06,5.91-.74.18-.74,1.34,0,1.16q12.6-3,25.2-6.2h0l3.09-.77C175.07,146.77,175.07,147.93,174.33,148.11Z" style="fill:#e72a7c"/><path d="M30,165.5q-7.5.56-15,.86c-.74,0-.74,1.18,0,1.15q7.5-.28,15-.86C30.74,166.6,30.74,165.44,30,165.5Z" style="fill:#e72a7c"/><path d="M61.17,137.3q7.52-1.05,15-2.29c.75-.12.75-1.27,0-1.15-5,.82-10,1.59-15,2.28C60.43,136.25,60.43,137.4,61.17,137.3Z" style="fill:#e72a7c"/><path d="M14.41,30.14c1.93-.08,3.85-.16,5.78-.26.74,0,.74-1.2,0-1.16-1.93.1-3.85.19-5.78.26C13.67,29,13.67,30.16,14.41,30.14Z" style="fill:#e72a7c"/><path d="M78,34.34q6.7-1.11,13.41-2.38v7.41c-8,1.49-16,2.86-23.92,4.06-.75.11-.75,1.27,0,1.16q15-2.27,30-5.23c.74-.14.74,1,0,1.16l-6.1,1.16V82a1.48,1.48,0,0,0,1.78,1.45q5.63-1.08,11.25-2.22a2.39,2.39,0,0,0,1.78-2.15V29q6.7-1.38,13.41-2.86A2.35,2.35,0,0,0,121.45,24V13.78a1.38,1.38,0,0,0-1.78-1.38c-13.88,3-27.75,5.84-41.63,8.16a2.19,2.19,0,0,0-1.78,2.08V32.86A1.46,1.46,0,0,0,78,34.34Z" style="fill:#e72a7c"/><path d="M102,125.13a1.41,1.41,0,0,0-.09,2.08l1.41,1.12c.74.7,1.4.37,2.06-.23,2.15-2.21,8.72-8.76,8.72-18.61,0-8.16-5-9.81-8.53-9.09A9.67,9.67,0,0,0,102,102l-6.71,1.32c-.75.15-.75,1.3,0,1.16l5.05-1,1.87-.37c.75-.15.75,1,0,1.16l-2.85.56a7.51,7.51,0,0,0-1.11,3.82c0,3.75,3.09,6,6.75,5.31a12.77,12.77,0,0,0,3.75-1.44C108.61,118.91,103.07,124.18,102,125.13Z" style="fill:#e72a7c"/><path d="M111.4,74.64c6.48-1.37,12.95-2.82,19.43-4.31h0l.12,0,6.53-1.51,6.83-1.62c.74-.18.74,1,0,1.16q-6.75,1.61-13.48,3.16v2.25a1.37,1.37,0,0,0,1.78,1.37c12.94-3,25.88-6.18,38.82-9.42a2.44,2.44,0,0,0,1.78-2.23V53.24a1.34,1.34,0,0,0-1.78-1.33c-8.66,2.16-17.32,4.31-26,6.38V45.64q10.7-2.58,21.38-5.24a2.44,2.44,0,0,0,1.78-2.23V28a1.38,1.38,0,0,0-1.78-1.34q-10.68,2.67-21.38,5.24V20.23c8.66-2.08,17.32-4.23,26-6.39a2.44,2.44,0,0,0,1.78-2.23V1.39A1.34,1.34,0,0,0,171.43.06c-12.94,3.23-25.88,6.42-38.82,9.41a2.38,2.38,0,0,0-1.78,2.2V69.18q-9.72,2.23-19.43,4.3C110.66,73.64,110.66,74.8,111.4,74.64Z" style="fill:#e72a7c"/><path d="M113.13,61q7.8-1.66,15.59-3.45c.74-.17.74-1.32,0-1.15q-7.8,1.77-15.59,3.45C112.39,60,112.39,61.15,113.13,61Z" style="fill:#e72a7c"/><path d="M35.77,80.16c-2.13.19-4.27.36-6.4.51l-1.49,2.74c-.75,1.36-.47,1.72.47,2.59,2.16,2,8.91,6.63,21.1,5.23C63.23,89.59,71.57,78.4,71.57,68.77,71.57,56,60,52.11,52.63,50.06s-10.22-4.49-10.22-8c0-2.53,2.54-5,5.91-5.42,5.72-.64,12.57,3.58,13.41,3.92.84.54,2.53-.55,3.19-1.67L69.7,31c.37-.72.56-2.43-.56-2.92a32.93,32.93,0,0,0-20.07-4.32c-6.9.79-12.14,3.42-15.74,7Q20.69,31.77,8.06,32.06a.58.58,0,0,0,0,1.15q14.43-.32,28.87-1.65c.74-.06.74,1.09,0,1.16l-5.76.48a19,19,0,0,0-3.76,11.24,16.47,16.47,0,0,0,1.44,6.83C19.42,52,10,52.33.56,52.35a.58.58,0,0,0,0,1.15c10.73,0,21.46-.5,32.18-1.37l3.61-.31c.74-.06.74,1.09,0,1.16-2.09.18-4.19.35-6.28.51,3.54,5.4,10,8.49,15.53,10a24.49,24.49,0,0,1,5.69,2.3C36.88,67.57,22.47,68.69,8.06,69a.58.58,0,0,0,0,1.16,441.18,441.18,0,0,0,44.65-3.35h0l3.27-.4c.74-.1.74,1.06,0,1.15l-2.22.28a6,6,0,0,1,1.5,4c0,3.28-2.72,6-6.47,6.41-6.19.73-12.94-3.64-13.32-3.8a2.51,2.51,0,0,0-3.18.82l-1.62,3C20.83,79,11,79.45,1.13,79.48a.58.58,0,0,0,0,1.16c11.55,0,23.1-.62,34.64-1.63C36.52,78.94,36.52,80.1,35.77,80.16Z" style="fill:#e72a7c"/><path d="M270.16,68.43q8.65-1.71,17.32-3.21c.74-.13.74,1,0,1.16-1.78.3-3.55.63-5.33,1V117l-6.22,1.15c-.74.14-.74,1.29,0,1.15,2.08-.39,4.15-.77,6.23-1.14.95-.18,1.9-.34,2.86-.51,2-.35,4-.7,5.92-1,.75-.12.75,1,0,1.16q-4.4.73-8.79,1.53v5a1.45,1.45,0,0,0,1.78,1.47c11.76-2.1,23.51-3.89,35.26-5.26a2.05,2.05,0,0,0,1.78-2V108.33a1.56,1.56,0,0,0-1.78-1.58q-11.16,1.32-22.32,3.09V59.77a1.52,1.52,0,0,0-1.78-1.5q-5.58.9-11.16,1.89a2.23,2.23,0,0,0-1.78,2.1V65c-4,.73-8,1.47-12,2.26C269.42,67.42,269.42,68.58,270.16,68.43Z" style="fill:#e72a7c"/><path d="M280.55,97.05l-6.35,1.19c-.74.15-.74,1.3,0,1.16,2.12-.41,4.23-.8,6.35-1.19C281.29,98.07,281.3,96.92,280.55,97.05Z" style="fill:#e72a7c"/></svg>