<?xml version="1.0" encoding="UTF-8"?>
<svg viewBox="0 0 394 446" version="1.1" xmlns="http://www.w3.org/2000/svg" xmlns:xlink="http://www.w3.org/1999/xlink">
    <defs>
        <linearGradient x1="-0.053474712%" y1="49.897877%" x2="100.003108%" y2="50.1401197%" id="linearGradient-1">
            <stop stop-color="#F6207C" offset="0%"></stop>
            <stop stop-color="#F67AE2" offset="100%"></stop>
        </linearGradient>
        <linearGradient x1="49.8982297%" y1="-0.0265057107%" x2="50.1404725%" y2="100.030077%" id="linearGradient-2">
            <stop stop-color="#F6207C" offset="0%"></stop>
            <stop stop-color="#F67AE2" offset="100%"></stop>
        </linearGradient>
        <linearGradient x1="-0.0468916183%" y1="50.1034536%" x2="99.9949647%" y2="49.8958406%" id="linearGradient-3">
            <stop stop-color="#F6207C" offset="0%"></stop>
            <stop stop-color="#F67AE2" offset="100%"></stop>
        </linearGradient>
        <linearGradient x1="0.0130637494%" y1="50.0955906%" x2="100.017968%" y2="50.0955906%" id="linearGradient-4">
            <stop stop-color="#FFFFFF" offset="0%"></stop>
            <stop stop-color="#F7F7F8" offset="100%"></stop>
        </linearGradient>
    </defs>
    <g id="Page-1" stroke="none" stroke-width="1" fill="none" fill-rule="evenodd">
        <g id="Desktop-HD" transform="translate(-836.000000, -182.000000)">
            <g id="Header-Image" transform="translate(719.000000, -74.000000)">
                <g id="Me" transform="translate(116.000000, 256.000000)">
                    <path d="M23.6622118,159.601132 C20.357094,159.58763 17.6810115,156.827284 17.6679218,153.418097 L17.6679218,136.83968 C17.6552086,135.189045 18.2803698,133.601158 19.405209,132.427033 C20.5300481,131.252908 22.0619266,130.589242 23.6622118,130.582744 C26.9766261,130.596311 29.656528,133.371609 29.6565019,136.790413 L29.6565019,153.368829 C29.6628483,155.015209 29.0348712,156.596757 27.910721,157.765543 C26.7865708,158.934329 25.2583341,159.594611 23.6622118,159.601132 Z" id="Path" fill="#C4C4C4"></path>
                    <path d="M23.6621406,127.428571 C20.3569572,127.415047 17.6808216,124.650007 17.6677316,121.235021 L17.6677316,104.62841 C17.6677055,101.203792 20.3476606,98.4237736 23.6621406,98.4101839 C26.9766206,98.4237736 29.6565756,101.203792 29.6565495,104.62841 L29.6565495,121.235021 C29.6434595,124.650007 26.967324,127.415047 23.6621406,127.428571 Z" id="Path" fill="#C4C4C4"></path>
                    <path d="M23.6621406,92.1018388 C20.3569572,92.0885401 17.6808216,89.3697382 17.6677316,86.0118594 L17.6677316,80.5284517 C17.6808216,77.170573 20.3569572,74.4517711 23.6621406,74.4384724 C26.967324,74.4517711 29.6434595,77.170573 29.6565495,80.5284517 L29.6565495,86.0118594 C29.6434595,89.3697382 26.967324,92.0885401 23.6621406,92.1018388 Z" id="Path" fill="#C4C4C4"></path>
                    <path d="M192.136581,150.138614 C188.831398,150.125559 186.155263,147.456529 186.142173,144.160122 L186.142173,114.482028 C186.155263,111.185621 188.831398,108.516591 192.136581,108.503536 C195.441765,108.516591 198.1179,111.185621 198.13099,114.482028 L198.13099,144.160122 C198.1179,147.456529 195.441765,150.125559 192.136581,150.138614 Z" id="Path" fill="#C4C4C4"></path>
                    <path d="M55.0918286,23.9717115 L160.075963,23.9717115 C169.011979,23.978107 177.578777,27.5711222 183.888508,33.9589707 C190.198239,40.3468192 193.73305,49.0052375 193.713981,58.026185 L193.713981,347.042079 C193.713985,365.800366 178.657599,381.010704 160.075963,381.024045 L55.0918286,381.024045 C46.1663218,381.024048 37.6067301,377.443044 31.2976893,371.069493 C24.9886486,364.695943 21.447458,356.052434 21.4538106,347.042079 L21.4538106,58.026185 C21.4283644,49.0032786 24.9611231,40.3411229 31.2722352,33.9518759 C37.5833474,27.562629 46.1538541,23.9716749 55.0918286,23.9717115 Z" id="Path" fill="#000000"></path>
                    <path d="M167.727238,381.65488 L48.071484,381.65488 C32.6886992,381.641599 20.2180732,369.076795 20.1916933,353.564542 L20.1916933,50.1213231 C20.2444739,34.5996576 32.7511082,22.0525353 48.1432774,22.0792505 L167.799032,22.0792505 C183.135157,22.132214 195.554507,34.6561054 195.607029,50.1213231 L195.607029,353.564542 C195.580649,369.076795 183.110023,381.641599 167.727238,381.65488 Z M48.071484,25.2406201 C34.4667496,25.2935397 23.4509454,36.4020701 23.3984675,50.1213231 L23.3984675,353.564542 C23.4248407,367.330819 34.491892,378.480235 48.1432774,378.49351 L167.799032,378.49351 C181.422377,378.440441 192.445824,367.30264 192.472048,353.564542 L192.472048,50.1213231 C192.419367,36.3739018 181.360001,25.2538001 167.727238,25.2406201 L48.071484,25.2406201 Z" id="Shape" fill="#9B9B9A" fill-rule="nonzero"></path>
                    <path d="M166.272859,28.273838 C179.129313,28.30043 189.544971,38.8136452 189.571316,51.7905185 L189.571316,353.301915 C189.571323,366.293735 179.144114,376.829426 166.272859,376.842765 L48.9425009,376.842765 C36.1125516,376.776224 25.7504134,366.252199 25.7637689,353.301915 L25.7637689,51.7905185 C25.7769375,38.8175558 36.1857214,28.3004697 49.0382808,28.273838 L166.368639,28.273838 L166.272859,28.273838 Z M166.368639,24.0683885 L49.0382808,24.0683885 C41.7334195,24.0362466 34.7168224,26.942767 29.5402347,32.1451627 C24.3636469,37.3475584 21.4536047,44.4171665 21.4536741,51.7905185 L21.4536741,353.301915 C21.4668765,368.606902 33.7555925,381.010719 48.9185559,381.024045 L166.248914,381.024045 C173.533054,381.024045 180.518854,378.103329 185.669518,372.904421 C190.820183,367.705513 193.713796,360.654281 193.713796,353.301915 L193.713796,51.7905185 C193.74564,44.4236467 190.868613,37.3474766 185.718984,32.1269352 C180.569354,26.9063939 173.571439,23.9716413 166.272859,23.9717115 L166.368639,24.0683885 Z" id="Shape" fill="#858585" fill-rule="nonzero"></path>
                    <rect id="Rectangle" fill="#EBEBEB" x="19.5607029" y="59.9292786" width="5.67891374" height="3.78500707"></rect>
                    <rect id="Rectangle" fill="#EBEBEB" x="189.928115" y="59.9292786" width="5.67891374" height="3.78500707"></rect>
                    <rect id="Rectangle" fill="#EBEBEB" x="20.1916933" y="343.804809" width="5.67891374" height="3.78500707"></rect>
                    <rect id="Rectangle" fill="#EBEBEB" x="189.928115" y="343.804809" width="5.67891374" height="3.78500707"></rect>
                    <path d="M184.231101,51.0646723 C184.25414,50.6866589 184.25414,50.3075751 184.231101,49.9295616 C184.231101,49.5189897 184.231101,49.132569 184.063495,48.721997 C183.990499,48.3063558 183.894575,47.8951451 183.776169,47.4902811 C183.6819,47.040903 183.561982,46.597391 183.417013,46.1619601 C183.27335,45.711136 183.105743,45.2522614 182.914193,44.7853364 C182.698699,44.254008 182.459261,43.7709822 182.195879,43.263805 C181.89707,42.6917832 181.569409,42.1355748 181.214184,41.5973659 C178.46177,37.598829 174.314431,34.7955996 169.601445,33.748196 C168.812122,33.5839099 168.011796,33.4789658 167.207065,33.4342292 L165.890157,33.4342292 L151.691488,33.4342292 C151.345644,33.4341289 151.018961,33.5944332 150.805568,33.8689524 C150.644903,34.06749 150.552477,34.3132701 150.542186,34.5693399 C150.542186,34.5693399 150.542186,34.7142477 150.542186,34.8108528 C150.56568,35.1485557 150.56568,35.4875042 150.542186,35.8252071 C150.542186,36.1633252 150.542186,36.5014433 150.374579,36.8395614 C150.206973,37.1776794 150.183029,37.4433437 150.087254,37.7573105 L149.728097,38.6509083 C149.584434,38.9165725 149.440772,39.206388 149.273165,39.4720522 L148.722458,40.2690448 C148.536032,40.5212745 148.336209,40.7631412 148.123863,40.9935836 C147.896054,41.2312439 147.6563,41.4569529 147.405549,41.6698198 C147.142168,41.8871814 146.90273,42.1286943 146.639348,42.3219046 L145.681596,42.8532331 C145.350563,43.046333 145.006527,43.2158069 144.652013,43.3604102 C144.245132,43.5145407 143.82934,43.6435855 143.406936,43.7468309 C142.901651,43.8498389 142.389409,43.914424 141.874533,43.9400412 L141.323826,43.9400412 L74.6164214,43.9400412 L74.0417704,43.9400412 C72.9713097,43.875997 71.9191125,43.631078 70.9290774,43.2155024 C70.3132369,42.9392618 69.7274693,42.5993242 69.1811806,42.2011482 C68.247179,41.5459371 67.4363831,40.7281148 66.7868014,39.786019 C66.468433,39.2804854 66.1959641,38.7469915 65.9727125,38.1920337 C65.7869742,37.7664715 65.6503946,37.3207672 65.565668,36.8637126 C65.4685413,36.4662035 65.3965648,36.0628687 65.3501739,35.656148 C65.3501739,35.31803 65.3501739,34.9799119 65.3501739,34.6176425 C65.352496,34.5774244 65.352496,34.5371041 65.3501739,34.496886 C65.2897622,33.9266848 64.8172112,33.4914861 64.2487595,33.4825318 L50.026147,33.4825318 C49.5395965,33.4578817 49.0521261,33.4578817 48.5655757,33.4825318 C48.0388122,33.4825318 47.5359926,33.4825318 47.033173,33.6757421 C46.5303533,33.8689524 46.0993651,33.8448011 45.6204892,33.9655576 C45.1911687,34.0526055 44.7674029,34.1655137 44.3514683,34.3036757 C43.9607811,34.4272947 43.577105,34.5724202 43.2021662,34.738399 L42.1246956,35.1972735 L41.1190563,35.7044506 L40.2091922,36.2599303 L39.3232719,36.8637126 L38.509183,37.4674949 L37.7429816,38.1195798 C37.5035437,38.3610928 37.240162,38.5543031 37.0246679,38.795816 L36.3542417,39.5203548 L35.6598717,40.1482884 L35.1091645,40.8969784 C34.9176142,41.1626426 34.7260638,41.4041555 34.5584573,41.6698198 C34.3908508,41.935484 34.2232442,42.2252995 34.0556377,42.4909637 C33.889882,42.7564776 33.7380299,43.0305678 33.6007056,43.3121076 C33.4507272,43.5866373 33.3148657,43.8687761 33.1936612,44.1574028 C33.0499984,44.4472183 32.9302794,44.7370338 32.8105605,45.0510006 C32.6908415,45.3649674 32.5711226,45.6306316 32.4753474,45.9445984 L32.1880219,46.8623475 C32.1880219,47.1763143 32.0204153,47.5144324 31.948584,47.8283992 C31.8767526,48.142366 31.8049212,48.4804841 31.7570336,48.8186022 C31.709146,49.1567203 31.7570336,49.4706871 31.6133709,49.8088052 C31.4697081,50.1469233 31.6133709,50.5091926 31.6133709,50.871462 C31.6133709,51.2337314 31.6133709,51.5718495 31.6133709,51.9341189 L31.6133709,349.719549 C31.6133709,350.154273 31.6133709,350.588996 31.6133709,350.999568 C31.6133709,351.41014 31.6133709,351.941468 31.7330898,352.424494 C31.8528088,352.90752 31.8528088,353.390546 31.948584,353.873571 C32.0443591,354.356597 32.2119657,354.912077 32.3556284,355.443405 C32.4992912,355.974734 32.7147853,356.554365 32.9063357,357.085693 C33.097886,357.617022 33.4091553,358.293258 33.6964808,358.872889 C34.0257655,359.553729 34.3935079,360.214951 34.7978952,360.853295 C37.8288705,365.578083 42.6346642,368.856209 48.1106436,369.934181 C49.0523476,370.107698 50.0040387,370.220632 50.9599549,370.272299 L51.9655941,370.272299 L165.219731,370.272299 C165.897649,370.309045 166.577035,370.309045 167.254953,370.272299 C167.859083,370.202898 168.458693,370.098065 169.050737,369.958332 C169.585645,369.85562 170.113487,369.718482 170.631028,369.54776 C171.102663,369.404064 171.566252,369.234758 172.019768,369.040583 L173.336676,368.485103 L174.533866,367.833018 L175.63528,367.156782 C175.98396,366.934875 176.319725,366.692964 176.640919,366.432243 C176.976132,366.166579 177.287402,365.925066 177.598671,365.635251 C177.90994,365.345435 178.197266,365.103922 178.484591,364.838258 L179.322624,363.775601 L180.088825,362.882003 C180.328263,362.592188 180.543757,362.278221 180.759252,361.964254 C180.974746,361.650288 181.19024,361.312169 181.405734,360.998203 C181.621228,360.684236 181.812778,360.346118 181.980385,360.008 C182.147992,359.669882 182.315598,359.331763 182.483205,358.969494 C182.650811,358.607225 182.794474,358.269107 182.938137,357.906837 C183.081799,357.544568 183.225462,357.182298 183.345181,356.820029 C183.4649,356.45776 183.560675,356.047188 183.65645,355.660767 C183.774674,355.280362 183.870615,354.893273 183.943776,354.501505 C183.943776,354.090933 184.087439,353.680361 184.135326,353.269789 C184.183214,352.859217 184.135326,352.448645 184.135326,352.013922 C184.135326,351.579199 184.135326,351.168627 184.135326,350.733904 L184.135326,52.030724 C184.278989,51.6926059 184.255045,51.3786391 184.231101,51.0646723 Z" id="Path" fill="#FFFFFF"></path>
                    <path d="M47.6123784,63.3927506 L169.851131,63.3920033 C171.209752,63.3919953 172.311138,64.4933684 172.311146,65.8519889 C172.311146,65.8519986 172.311146,65.8520083 172.311146,65.852018 L172.310733,125.402513 C172.310725,126.761122 171.209357,127.86249 169.850747,127.862498 L47.6119943,127.863275 C46.2533739,127.863283 45.1519879,126.761909 45.1519799,125.403289 C45.1519799,125.403279 45.1519799,125.40327 45.1519799,125.40326 L45.1523928,65.8527651 C45.1524009,64.4941559 46.2537693,63.3927877 47.6123784,63.3927797 Z" id="Rectangle" fill="url(#linearGradient-1)" transform="translate(108.731563, 95.627639) rotate(-0.070000) translate(-108.731563, -95.627639) "></path>
                    <g id="Group" opacity="0.73" transform="translate(56.158147, 71.284300)" fill="#FFFFFF">
                        <polygon id="Rectangle" transform="translate(28.522470, 3.298296) rotate(-0.070000) translate(-28.522470, -3.298296) " points="0.500871718 0.204653 56.5445117 0.200776681 56.5440677 6.39193915 0.500427767 6.39581547"></polygon>
                        <polygon id="Rectangle" transform="translate(28.510377, 13.258651) rotate(-0.070000) translate(-28.510377, -13.258651) " points="0.488778736 10.1650075 56.5324187 10.1611312 56.5319747 16.3522937 0.488334785 16.35617"></polygon>
                        <polygon id="Rectangle" transform="translate(28.546744, 23.218975) rotate(-0.070000) translate(-28.546744, -23.218975) " points="0.5251458 20.1253324 56.5687858 20.1214561 56.5683418 26.3126186 0.524701849 26.3164949"></polygon>
                        <polygon id="Rectangle" transform="translate(28.534621, 33.155036) rotate(-0.070000) translate(-28.534621, -33.155036) " points="0.513023216 30.0613934 56.5566632 30.0575171 56.5562192 36.2486796 0.512579264 36.2525559"></polygon>
                        <polygon id="Rectangle" transform="translate(16.989071, 43.129548) rotate(-0.070000) translate(-16.989071, -43.129548) " points="0.549428586 40.0343408 33.4291579 40.0320662 33.4287139 46.2247561 0.54898462 46.2270307"></polygon>
                    </g>
                    <path d="M133.769968,77.592645 C133.769968,81.7734483 130.37992,85.1626591 126.198083,85.1626591 C122.016246,85.1626591 118.626198,81.7734483 118.626198,77.592645 C118.626198,73.4118416 122.016246,70.0226308 126.198083,70.0226308 C128.206272,70.0226308 130.13221,70.8201836 131.552214,72.2398366 C132.972218,73.6594897 133.769968,75.5849524 133.769968,77.592645 Z" id="Path" fill="#FADD74"></path>
                    <path d="M149.544728,77.592645 C149.544728,81.7734483 146.15468,85.1626591 141.972843,85.1626591 C137.791007,85.1626591 134.400958,81.7734483 134.400958,77.592645 C134.400958,73.4118416 137.791007,70.0226308 141.972843,70.0226308 C146.15468,70.0226308 149.544728,73.4118416 149.544728,77.592645 Z" id="Path" fill="#E6332A"></path>
                    <path d="M167.21242,77.5681365 C167.222307,80.632072 165.383785,83.3998123 162.555204,84.5791845 C159.726623,85.7585568 156.465871,85.1169509 154.295292,82.9539129 C152.124712,80.790875 151.472414,77.5330254 152.642935,74.7013542 C153.813456,71.8696829 156.575932,70.0226863 159.640648,70.0226704 C161.646557,70.0161804 163.572535,70.8082808 164.993225,72.2240342 C166.413914,73.6397877 167.212431,75.5627164 167.21242,77.5681365 Z" id="Path" fill="#FADD74"></path>
                    <path d="M133.769968,96.5176803 C133.769968,100.698484 130.37992,104.087694 126.198083,104.087694 C122.016246,104.087694 118.626198,100.698484 118.626198,96.5176803 C118.626198,92.336877 122.016246,88.9476662 126.198083,88.9476662 C130.374336,88.9611131 133.756518,92.3424595 133.769968,96.5176803 Z" id="Path" fill="#34525C"></path>
                    <path d="M149.544688,96.4932213 C149.5582,100.673992 146.179139,104.074131 141.997335,104.087654 C137.815531,104.101177 134.41454,100.722962 134.400999,96.5421915 C134.387458,92.3614206 137.766496,88.9612579 141.948299,88.947706 C143.956491,88.9411981 145.885017,89.7325162 147.309619,91.147577 C148.73422,92.5626379 149.5382,94.4855256 149.544688,96.4932213 Z" id="Path" fill="#FADD74"></path>
                    <path d="M167.21242,96.5177003 C167.21242,100.698493 163.822381,104.087694 159.640555,104.087694 C155.45873,104.087694 152.06869,100.698493 152.06869,96.5177003 C152.06869,92.336908 155.45873,88.9477062 159.640555,88.9477062 C161.650735,88.9411705 163.58047,89.7366223 165.001889,91.1576908 C166.423309,92.5787593 167.218957,94.5080166 167.21242,96.5177003 Z" id="Path" fill="#FFFFFF"></path>
                    <path d="M133.769968,114.180936 C133.769968,117.242676 131.925164,120.002938 129.095786,121.174615 C126.266408,122.346292 123.009653,121.698643 120.844141,119.533666 C118.678628,117.368689 118.03082,114.112738 119.202786,111.284059 C120.374753,108.45538 123.135697,106.611033 126.198194,106.611033 C130.379969,106.611033 133.769968,110.000194 133.769968,114.180936 Z" id="Path" fill="#FADD74"></path>
                    <path d="M150.175719,114.181086 C150.175697,118.358696 146.790615,121.746564 142.611976,121.751056 C138.433336,121.755548 135.040975,118.374965 135.031967,114.197366 C135.022959,110.019766 138.40071,106.624592 142.57933,106.611072 C144.591761,106.604561 146.524,107.399239 147.949309,108.819598 C149.374617,110.239957 150.175729,112.169142 150.175719,114.181086 Z" id="Path" fill="#34525C"></path>
                    <path d="M167.21246,114.181047 C167.21246,118.36185 163.822412,121.751061 159.640575,121.751061 C155.458738,121.751061 152.06869,118.36185 152.06869,114.181047 C152.06869,110.000243 155.458738,106.611033 159.640575,106.611033 C163.822412,106.611033 167.21246,110.000243 167.21246,114.181047 Z" id="Path" fill="#FFFFFF"></path>
                    <path d="M78.9490294,106.534972 L138.499524,106.534588 C139.858145,106.53458 140.959531,107.635953 140.959539,108.994573 C140.959539,108.994583 140.959539,108.994593 140.959539,108.994603 L140.958763,231.233356 C140.958755,232.591965 139.857386,233.693333 138.498777,233.693341 L78.9482823,233.693754 C77.5896619,233.693762 76.4882758,232.592389 76.4882677,231.233769 C76.4882677,231.233759 76.4882677,231.233749 76.4882677,231.23374 L76.4890441,108.994987 C76.4890521,107.636377 77.5904203,106.535009 78.9490294,106.535001 Z" id="Rectangle" fill="url(#linearGradient-2)" transform="translate(108.723903, 170.114171) rotate(-89.930000) translate(-108.723903, -170.114171) "></path>
                    <g id="Group" opacity="0.73" transform="translate(104.744409, 146.353607)" fill="#FFFFFF">
                        <polygon id="Rectangle" transform="translate(27.832347, 3.274305) rotate(-89.930000) translate(-27.832347, -3.274305) " points="24.7593118 -24.3894531 30.9091495 -24.3898841 30.905395 30.9380918 24.7555573 30.9385228"></polygon>
                        <polygon id="Rectangle" transform="translate(27.832355, 13.155318) rotate(-89.930000) translate(-27.832355, -13.155318) " points="24.759313 -14.5084545 30.9091507 -14.5088855 30.9053963 40.8190903 24.7555586 40.8195213"></polygon>
                        <polygon id="Rectangle" transform="translate(27.808397, 23.036337) rotate(-89.930000) translate(-27.808397, -23.036337) " points="24.7353559 -4.62743507 30.8851936 -4.62786608 30.8814391 50.7001098 24.7316014 50.7005408"></polygon>
                        <polygon id="Rectangle" transform="translate(27.808390, 32.917357) rotate(-89.930000) translate(-27.808390, -32.917357) " points="24.7353486 5.2535844 30.8851862 5.25315338 30.8814318 60.5811292 24.7315941 60.5815603"></polygon>
                        <polygon id="Rectangle" transform="translate(39.232477, 42.822514) rotate(-89.930000) translate(-39.232477, -42.822514) " points="36.1580059 26.5927875 42.3091511 26.5923564 42.3069481 59.0522411 36.1558029 59.0526722"></polygon>
                    </g>
                    <path d="M83.2907348,152.031117 C83.2907348,156.211921 86.6807832,159.601132 90.8626198,159.601132 C95.0444564,159.601132 98.4345048,156.211921 98.4345048,152.031117 C98.4345048,147.850314 95.0444564,144.461103 90.8626198,144.461103 C86.6807832,144.461103 83.2907348,147.850314 83.2907348,152.031117 Z" id="Path" fill="#FADD74"></path>
                    <path d="M66.884984,152.031137 C66.8850059,156.208758 70.2700877,159.596635 74.4487271,159.601127 C78.6273665,159.605619 82.0197279,156.225027 82.028736,152.047417 C82.0377441,147.869806 78.6599932,144.474623 74.4813733,144.461103 C70.2955543,144.461081 66.8984867,147.846363 66.884984,152.031137 Z" id="Path" fill="#E6332A"></path>
                    <path d="M51.1102636,152.00651 C51.1003454,155.070461 52.9388469,157.838232 55.767425,159.017633 C58.596003,160.197033 61.8567684,159.555445 64.0273641,157.392408 C66.1979597,155.22937 66.8502724,151.971506 65.6797561,149.139818 C64.5092398,146.308129 61.7467591,144.461119 58.6820364,144.461103 C54.5098125,144.461081 51.1237659,147.835337 51.1102636,152.00651 Z" id="Path" fill="#FADD74"></path>
                    <path d="M83.2907752,170.931694 C83.2772638,175.112465 86.6563247,178.512604 90.8381287,178.526126 C95.0199326,178.539649 98.4209236,175.161435 98.4344642,170.980664 C98.4480049,166.799893 95.0689676,163.39973 90.8871638,163.386178 C88.8789721,163.379671 86.9504459,164.170989 85.5258444,165.586049 C84.1012429,167.00111 83.2972637,168.923998 83.2907752,170.931694 Z" id="Path" fill="#34525C"></path>
                    <path d="M66.8850237,170.931644 C66.8751375,173.99558 68.7136595,176.76332 71.5422401,177.942692 C74.3708208,179.122065 77.6315733,178.480459 79.8021525,176.317421 C81.9727318,174.154383 82.6250298,170.896533 81.4545088,168.064862 C80.2839878,165.233191 77.521512,163.386194 74.4567965,163.386178 C72.4508868,163.379688 70.5249086,164.171789 69.1042192,165.587542 C67.6835299,167.003295 66.8850132,168.926224 66.8850237,170.931644 Z" id="Path" fill="#FADD74"></path>
                    <path d="M51.1102236,170.956153 C51.1102236,175.136956 54.500272,178.526167 58.6821086,178.526167 C62.8639452,178.526167 66.2539936,175.136956 66.2539936,170.956153 C66.2539936,166.775349 62.8639452,163.386139 58.6821086,163.386139 C56.6739199,163.386139 54.7479813,164.183691 53.3279774,165.603344 C51.9079735,167.022997 51.1102236,168.94846 51.1102236,170.956153 Z" id="Path" fill="#FFFFFF"></path>
                    <path d="M83.2907348,189.250393 C83.2907567,193.428003 86.6758385,196.815871 90.8544779,196.820363 C95.0331173,196.824855 98.4254787,193.444272 98.4344868,189.266673 C98.4434949,185.089073 95.065744,181.693899 90.8871241,181.680379 C88.874693,181.673868 86.9424533,182.468545 85.5171452,183.888905 C84.091837,185.309264 83.2907243,187.238449 83.2907348,189.250393 Z" id="Path" fill="#FADD74"></path>
                    <ellipse id="Oval" fill="#34525C" transform="translate(74.612455, 189.045661) rotate(-16.260000) translate(-74.612455, -189.045661) " cx="74.6124553" cy="189.045661" rx="7.42334579" ry="7.45286708"></ellipse>
                    <path d="M49.8482827,189.225746 C49.8383645,192.289697 51.6768661,195.057469 54.5054441,196.236869 C57.3340222,197.416269 60.5947876,196.774681 62.7653832,194.611644 C64.9359789,192.448606 65.5882915,189.190742 64.4177752,186.359054 C63.247259,183.527366 60.4847782,181.680356 57.4200556,181.680339 C53.2478317,181.680318 49.8617851,185.054574 49.8482827,189.225746 Z" id="Path" fill="#FFFFFF"></path>
                    <path d="M265.658613,333.166156 C255.247514,269.993241 229.111565,256.749646 229.111565,256.749646 L214.035908,274.48833 C214.433789,275.639161 214.644868,276.846839 214.661055,278.065067 C214.661055,288.964449 214.132085,301.700534 204.562529,308.419 C208.366756,313.623517 210.776126,319.723535 211.559365,326.133517 C213.026056,338.772933 209.154954,352.717375 190.689077,362.384233 C168.592539,373.936128 123.581965,373.331949 123.581965,373.331949 L108.530351,389.548103 C208.698116,426.983009 273.352729,379.881245 265.658613,333.166156 Z" id="Path" fill="#FFCB9C"></path>
                    <path d="M104.640663,367.361954 C104.640663,367.361954 66.6952936,356.348995 63.1267636,356.88384 C59.5582335,357.418686 60.2005689,361.86763 66.8142446,363.399233 C73.0520437,365.169288 79.1776429,367.328939 85.1564891,369.866004 C85.1564891,369.866004 60.2719395,365.003771 58.4163039,366.559685 C56.5606683,368.1156 57.1078429,371.421919 61.6755614,371.85952 C66.2432798,372.297121 84.3714125,376.721754 84.3714125,376.721754 C84.3714125,376.721754 68.5509293,376.284153 64.3400638,377.207977 C60.1291983,378.131801 65.2678816,381.535365 69.5739079,381.583987 C73.8799341,381.63261 87.4879287,383.674748 87.4879287,383.674748 C87.4879287,383.674748 75.5928286,386.446221 73.9275145,388.269559 C72.2622005,390.092896 73.9275145,391.186899 75.9021012,391.113965 C77.8766878,391.041032 94.529828,386.859511 94.529828,386.859511 C94.529828,386.859511 109.945878,392.135034 118.53414,385.789819 C127.122403,379.444604 125.052655,373.391124 123.672823,372.370054 C122.292992,371.348985 100.786651,354.79308 96.3378833,353.528899 C91.8891158,352.264718 90.6520254,355.789838 97.1229599,359.655313 C103.593894,363.520789 106.781781,366.267951 104.640663,367.361954 Z" id="Path" fill="#FFCB9C"></path>
                    <path d="M209.190019,445.827823 C175.441506,340.605471 206.273872,193.116921 282.900346,199.546997 C358.482525,205.889441 390.252177,332.38649 394.500418,350.882011 C345.237871,382.580744 308.175964,405.665335 283.314696,420.135785 C262.189786,432.431495 237.48156,440.995508 209.190019,445.827823 Z" id="Combined-Shape" fill="#663399"></path>
                    <path d="M6.73405435,260.140389 L174.167952,259.749454 C175.526568,259.746282 176.630516,260.845087 176.633689,262.203704 C176.633697,262.207534 176.633697,262.211364 176.633689,262.215195 L176.442116,344.216271 C176.438953,345.570403 175.341998,346.667356 173.987867,346.670518 L6.55396965,347.061452 C5.19535287,347.064624 4.09140479,345.96582 4.08823261,344.607203 C4.08822367,344.603372 4.08822367,344.599542 4.08823262,344.595712 L4.2798048,262.594635 C4.28296835,261.240504 5.37992283,260.143551 6.73405435,260.140389 Z" id="Rectangle" fill="url(#linearGradient-3)" transform="translate(90.360961, 303.405453) rotate(-48.540000) translate(-90.360961, -303.405453) "></path>
                    <g id="Group" opacity="0.73" transform="translate(63.099042, 228.992928)" fill="#FFFFFF">
                        <polygon id="Rectangle" transform="translate(28.169922, 31.463680) rotate(-48.540000) translate(-28.169922, -31.463680) " points="-9.32918595 27.2863008 65.6908265 27.2450293 65.6690301 35.6410592 -9.35098235 35.6823307"></polygon>
                        <polygon id="Rectangle" transform="translate(38.096545, 40.285872) rotate(-48.540000) translate(-38.096545, -40.285872) " points="0.597436907 36.1084928 75.6174493 36.0672213 75.5956529 44.4632513 0.575640506 44.5045228"></polygon>
                        <polygon id="Rectangle" transform="translate(48.062943, 49.090048) rotate(-48.540000) translate(-48.062943, -49.090048) " points="10.5638349 44.9126689 85.5838474 44.8713974 85.562051 53.2674274 10.5420385 53.3086989"></polygon>
                        <polygon id="Rectangle" transform="translate(57.989566, 57.936280) rotate(-48.540000) translate(-57.989566, -57.936280) " points="20.4904578 53.7589009 95.5104702 53.7176294 95.4886738 62.1136593 20.4686614 62.1549308"></polygon>
                        <polygon id="Rectangle" transform="translate(78.172220, 55.084273) rotate(-48.540000) translate(-78.172220, -55.084273) " points="56.1687053 50.942561 100.194266 50.8982575 100.175736 59.2259848 56.1501747 59.2702883"></polygon>
                    </g>
                    <path d="M50.6144686,312.961054 C53.57812,315.58225 57.8301461,316.161358 61.3877217,314.428325 C64.9452973,312.695292 67.1077697,308.991434 66.8667243,305.04395 C66.6256788,301.096467 64.0285888,297.682803 60.2865415,296.394834 C56.5444943,295.106866 52.3944738,296.198254 49.7717375,299.160057 C46.2041156,303.208302 46.5807505,309.376269 50.6144686,312.961054 Z" id="Path" fill="#FADD74"></path>
                    <path d="M35.4706987,329.362751 C38.43435,331.983948 42.6863761,332.563055 46.2439517,330.830022 C49.8015274,329.09699 51.9639997,325.393131 51.7229543,321.445648 C51.4819089,317.498164 48.8848188,314.0845 45.1427716,312.796532 C41.4007244,311.508563 37.2507038,312.599951 34.6279675,315.561754 C31.0603456,319.609999 31.4369806,325.777967 35.4706987,329.362751 Z" id="Path" fill="#E6332A"></path>
                    <path d="M19.6923238,347.015843 C22.6526117,349.643719 26.9055627,350.22827 30.4653768,348.496556 C34.0251909,346.764842 36.1896587,343.058461 35.9481408,339.108007 C35.7066228,335.157554 33.1067609,331.742294 29.36249,330.456891 C25.6182191,329.171488 21.4681346,330.269501 18.8500058,333.238242 C15.2867318,337.2787 15.6633712,343.439303 19.6923238,347.015843 Z" id="Path" fill="#FADD74"></path>
                    <path d="M68.9227239,328.733292 C71.8875864,331.355726 76.1413348,331.932721 79.6979544,330.194886 C83.2545741,328.457051 85.4125546,324.747159 85.1643656,320.797304 C84.9161766,316.84745 82.3107711,313.436706 78.5645758,312.1575 C74.8183805,310.878295 70.6702978,311.982939 68.0570087,314.95569 C64.4996281,319.002395 64.8867586,325.163463 68.9227239,328.733292 Z" id="Path" fill="#34525C"></path>
                    <path d="M54.421445,346.406886 C58.4724994,349.978708 64.6527769,349.591105 68.2255812,345.541144 C71.7983854,341.491183 71.4108082,335.312457 67.359897,331.740473 C63.3089858,328.168489 57.1286927,328.555845 53.5557262,332.605662 C51.8398355,334.550557 50.9670605,337.097278 51.1294158,339.685533 C51.2917711,342.273788 52.4759562,344.691545 54.421445,346.406886 Z" id="Path" fill="#FADD74"></path>
                    <path d="M39.2857023,362.808584 C43.3347554,366.380405 49.5119799,365.992802 53.0830192,361.942841 C56.6540585,357.892881 56.2666727,351.714154 52.2177627,348.14217 C48.1688526,344.570186 41.9916125,344.957542 38.420411,349.00736 C36.6994357,350.949562 35.8231959,353.497675 35.9855907,356.087839 C36.1479854,358.678004 37.335625,361.096656 39.2857023,362.808584 Z" id="Path" fill="#FFFFFF"></path>
                    <path d="M87.8719642,345.145217 C91.9210174,348.717039 98.0982419,348.329436 101.669281,344.279475 C105.24032,340.229514 104.852935,334.050788 100.804025,330.478804 C96.7551145,326.90682 90.5778745,327.294176 87.006673,331.343993 C85.2856977,333.286195 84.4094579,335.834308 84.5718526,338.424473 C84.7342474,341.014637 85.921887,343.43329 87.8719642,345.145217 Z" id="Path" fill="#FADD74"></path>
                    <path d="M72.0761194,362.166146 C75.0383178,364.787342 79.2882593,365.36645 82.8440909,363.633417 C86.3999224,361.900384 88.5613346,358.196525 88.3204073,354.249042 C88.0794801,350.301559 85.4836632,346.887895 81.7434505,345.599926 C78.0032379,344.311958 73.8552519,345.403346 71.2338014,348.365149 C67.6547619,352.408869 68.0318602,358.587453 72.0761194,362.166146 Z" id="Path" fill="#34525C"></path>
                    <path d="M58.1943302,379.829512 C61.1565286,382.450708 65.4064702,383.029816 68.9623017,381.296783 C72.5181332,379.563751 74.6795454,375.859892 74.4386182,371.912409 C74.1976909,367.964925 71.6018741,364.551261 67.8616614,363.263293 C64.1214487,361.975324 59.9734628,363.066712 57.3520122,366.028515 C53.7729728,370.072235 54.1500711,376.25082 58.1943302,379.829512 Z" id="Path" fill="#FFFFFF"></path>
                    <path d="M234.406014,274.24435 C222.639144,271.247641 209.580788,283.137023 205.228002,300.824916 C200.875217,318.512809 206.878234,335.299252 218.645104,338.295961 C230.411975,341.29267 243.47033,329.403288 247.823116,311.715395 C252.175901,294.027503 246.172884,277.241059 234.406014,274.24435 Z M209.724286,302.335452 L220.104005,331.37673 C211.087521,328.867291 206.495572,316.003369 209.724286,302.335452 Z M224.241543,331.742183 L211.613682,296.488215 C216.062133,285.743917 224.767704,279.092684 232.707949,281.114854 C238.280471,282.5523 242.27451,287.887904 243.685578,294.928952 L240.624279,297.365301 C239.476291,291.420609 236.22366,286.889 231.583878,285.69519 C225.676527,284.184653 219.243014,288.545718 215.41639,295.952218 L226.417935,326.723304 C231.201216,325.50513 235.840998,320.949157 238.567468,314.54156 L231.392547,312.689935 L232.612284,307.817237 L240.265532,309.766316 L243.326832,310.545948 C240.313365,322.508421 232.30137,331.084369 224.241543,331.742183 Z" id="Shape" fill="#A393C5" fill-rule="nonzero"></path>
                    <path d="M153.810964,261.269158 C153.810964,261.269158 138.902197,224.189366 136.279808,221.662839 C133.657419,219.136312 130.525121,222.312518 133.414605,228.544618 C135.897947,234.609454 137.998293,240.82146 139.703483,247.144669 C139.703483,247.144669 128.072702,224.261553 125.693127,223.708123 C123.313552,223.154693 121.006821,225.633096 123.532084,229.531166 C126.057348,233.429237 133.730263,250.705869 133.730263,250.705869 C133.730263,250.705869 124.211963,237.784488 120.885414,234.969215 C117.558865,232.153942 118.020211,238.313855 120.666881,241.778807 C123.313552,245.243758 130.160901,257.419212 130.160901,257.419212 C130.160901,257.419212 120.448349,249.550885 118.020211,249.310263 C115.592073,249.069642 115.737761,251.114926 116.976112,252.60678 C118.214462,254.098634 131.933441,264.974731 131.933441,264.974731 C131.933441,264.974731 137.348189,280.518887 147.716338,283.574782 C158.084486,286.630677 161.605286,281.337001 161.532442,279.604525 C161.459598,277.87205 161.216784,250.729931 159.468525,246.326555 C157.720266,241.92318 154.126622,243.126288 155.073595,250.657745 C156.020569,258.189201 156.020569,262.327893 153.810964,261.269158 Z" id="Path" fill="#FFCB9C"></path>
                    <path d="M317.799971,291.464092 C317.799971,291.464092 323.241361,320.475721 279.902011,367.184443 C247.852946,401.804986 171.577608,379.07921 140.079872,276.305516 L161.989256,278.433036 C161.989256,278.433036 188.860612,314.697571 211.369267,325.238463 C230.114495,334.038657 243.514216,328.647329 252.575209,319.774606 C260.72559,311.607541 264.838811,300.199222 263.79358,288.659635 L317.799971,291.464092 Z" id="Path" fill="#FFCB9C"></path>
                    <ellipse id="Oval" fill="#191919" cx="262.176518" cy="40.688826" rx="40.6988818" ry="40.688826"></ellipse>
                    <ellipse id="Oval" fill="#191919" cx="241.353834" cy="82.3239038" rx="25.5551118" ry="25.5487977"></ellipse>
                    <ellipse id="Oval" fill="#191919" cx="295.61901" cy="83.2701556" rx="34.3889776" ry="34.6958982"></ellipse>
                    <path d="M199.458579,134.168755 C200.320558,154.601354 205.372717,173.077641 235.781441,186.868438 C235.781441,186.868438 251.392849,202.688004 246.819569,224.400661 C242.246288,246.113317 301.148227,244.495132 292.312936,214.546641 C283.477645,184.59815 298.131298,150.012473 308.786324,130.401041 C319.441349,110.78961 315.035676,69.7553466 290.493201,56.4234376 C280.91565,51.1824516 256.971773,53.5735005 241.264589,61.2538394 C214.78266,74.4166843 198.213497,104.461784 199.458579,134.168755 Z" id="Path" fill="#FFCB9C"></path>
                    <path d="M303.162793,112.421966 C307.780532,109.014493 313.678276,107.74592 319.323668,108.945847 C328.307357,111.34317 329.869737,143.515255 308.826423,149.148966 C287.783108,154.782677 295.375301,134.525291 295.375301,134.525291 L303.162793,112.421966 Z" id="Path" fill="#FFCB9C"></path>
                    <path d="M198.327767,130.177286 C199.119284,130.31305 199.92012,130.385874 200.722909,130.395089 C202.350889,130.404007 203.96924,130.14238 205.513194,129.620678 C212.411203,133.081326 224.147399,136.880779 235.78779,130.806494 C253.799259,121.319962 269.750905,119.940542 278.157854,124.0788 C292.648464,131.1937 309.294702,127.345846 314.084986,104.718529 C314.084986,104.718529 316.120857,122.65098 305.103203,132.040712 C294.08555,141.430443 293.678375,156.458854 295.402878,168.559023 C297.12738,180.659193 305.701989,194.525987 294.636432,209.990003 C283.570876,225.45402 265.535455,209.990003 251.978951,213.644255 C238.422446,217.298506 208.531073,221.218961 202.279752,196.292612 C196.028431,171.366262 204.124011,162.024932 202.279752,151.691387 C200.722909,143.027666 197.273905,137.776192 198.327767,130.177286 Z" id="Path" fill="#191919"></path>
                    <path d="M240.928619,143.04499 C243.4781,140.880242 246.462557,139.302946 249.674808,138.422597 C253.950723,137.61122 258.372407,138.422597 260.19453,143.733431 C262.016653,149.044265 257.424903,154.010878 251.594111,158.485748 C248.144225,161.141165 235.7052,165.665208 228.149464,163.403186 C220.593729,161.141165 216.487879,159.223363 214.131267,154.723907 C211.774655,150.22445 214.665756,144.741506 218.139937,142.700769 C221.217011,141.147692 224.852987,141.230486 227.857925,142.922054 C231.819849,145.534036 236.91941,145.581999 240.928619,143.04499 Z" id="Path" fill="url(#linearGradient-4)"></path>
                    <path d="M252.396166,101.879774 C252.396166,105.540274 253.780713,108.503536 255.528421,108.503536 C257.276128,108.503536 258.70607,105.540274 258.70607,101.879774 C258.70607,98.2192734 257.321523,95.2560113 255.596513,95.2560113 C253.871503,95.2560113 252.396166,98.2192734 252.396166,101.879774 Z" id="Path" fill="#191919"></path>
                    <path d="M216.429712,105.664781 C216.429712,109.325281 217.821933,112.288543 219.528527,112.288543 C221.23512,112.288543 222.739617,109.325281 222.739617,105.664781 C222.739617,102.004281 221.347396,99.0410184 219.640802,99.0410184 C217.934209,99.0410184 216.429712,102.004281 216.429712,105.664781 Z" id="Path" fill="#191919"></path>
                    <path d="M192.452077,101.879774 C192.452077,113.202783 201.633458,122.381895 212.959265,122.381895 C224.285073,122.381895 233.466454,113.202783 233.466454,101.879774 C233.466454,90.5567646 224.285073,81.3776521 212.959265,81.3776521 C201.633458,81.3776521 192.452077,90.5567646 192.452077,101.879774 Z" id="Path" stroke="#1D1D1B" stroke-width="2"></path>
                    <polygon id="Path" fill="#FF6252" points="233.471234 85.1626591 222.739617 128.059406 244.824281 125.625377"></polygon>
                    <ellipse id="Oval" stroke="#1D1D1B" stroke-width="2" transform="translate(258.763090, 98.829034) rotate(-9.190000) translate(-258.763090, -98.829034) " cx="258.76309" cy="98.8290339" rx="20.3910842" ry="20.4823719"></ellipse>
                    <path d="M229.049521,88.3168317 L241.038339,88.3168317" id="Path" stroke="#1D1D1B" stroke-width="2"></path>
                    <path d="M278.266773,93.9943423 L316.126198,105.980198" id="Path" stroke="#1D1D1B" stroke-width="2"></path>
                    <path d="M296.565525,136.551624 C296.555848,140.508533 298.932573,144.081202 302.58641,145.602154 C306.240246,147.123106 310.450803,146.292471 313.252883,143.497932 C316.054963,140.703393 316.896108,136.49592 315.38373,132.839273 C313.871352,129.182627 310.30363,126.797749 306.345732,126.797737 C300.953597,126.797721 296.578708,131.160836 296.565525,136.551624 Z" id="Path" fill="#191919"></path>
                    <path d="M293.410575,148.246021 C293.410588,151.564988 295.41161,154.55671 298.479578,155.824672 C301.547546,157.092635 305.077482,156.386807 307.421636,154.036663 C309.76579,151.68652 310.461915,148.15549 309.185064,145.091834 C307.908213,142.028177 304.910172,140.036023 301.590403,140.045294 C299.417002,140.045285 297.332951,140.910018 295.798275,142.448615 C294.2636,143.987212 293.404487,146.073162 293.410575,148.246021 Z" id="Path" fill="#191919"></path>
                    <path d="M290.255616,161.468619 C290.245822,166.320885 293.086298,170.700495 297.450448,172.562026 C301.814598,174.423556 306.841296,173.399694 310.182908,169.968616 C313.52452,166.537538 314.521685,161.376259 312.708694,156.895266 C310.895704,152.414274 306.630293,149.497749 301.90455,149.507805 C295.471022,149.507805 290.255616,154.862844 290.255616,161.468619 Z" id="Path" fill="#191919"></path>
                    <path d="M290.255616,179.76282 C290.245822,184.615086 293.086298,188.994696 297.450448,190.856227 C301.814598,192.717757 306.841296,191.693895 310.182908,188.262817 C313.52452,184.831739 314.521685,179.670459 312.708694,175.189467 C310.895704,170.708475 306.630293,167.79195 301.90455,167.802006 C295.471022,167.802006 290.255616,173.157045 290.255616,179.76282 Z" id="Path" fill="#191919"></path>
                    <path d="M283.945712,201.211169 C283.935912,206.061175 286.773762,210.439215 291.134935,212.302209 C295.496108,214.165202 300.520905,213.145905 303.864426,209.719989 C307.207947,206.294072 308.211099,201.136872 306.405745,196.655076 C304.600392,192.17328 300.342413,189.250364 295.618863,189.250354 C289.181406,189.250339 283.959068,194.601373 283.945712,201.211169 Z" id="Path" fill="#191919"></path>
                    <path d="M270.695293,214.384098 C270.656039,219.240704 273.475086,223.641555 277.833787,225.528092 C282.192487,227.414629 287.229121,226.413882 290.587733,222.993964 C293.946345,219.574046 294.962934,214.411078 293.161976,209.920111 C291.361018,205.429144 287.098565,202.498046 282.368438,202.497878 C275.95918,202.497652 270.748482,207.803463 270.695293,214.384098 Z" id="Path" fill="#191919"></path>
                    <path d="M249.241214,212.591055 C249.241214,217.438811 252.085286,221.809225 256.447244,223.66438 C260.809202,225.519536 265.830033,224.494092 269.168531,221.066211 C272.507029,217.638331 273.505735,212.483076 271.698952,208.004334 C269.89217,203.525592 265.635715,200.605375 260.914366,200.605375 C254.467462,200.605375 249.241214,205.971547 249.241214,212.591055 Z" id="Path" fill="#191919"></path>
                    <ellipse id="Oval" fill="#191919" cx="238.829872" cy="217.007072" rx="11.6733227" ry="11.9858557"></ellipse>
                    <path d="M205.071885,210.698727 C205.071885,217.318332 210.29821,222.684583 216.745208,222.684583 C223.192206,222.684583 228.41853,217.318332 228.41853,210.698727 C228.41853,204.079122 223.192206,198.712871 216.745208,198.712871 C210.29821,198.712871 205.071885,204.079122 205.071885,210.698727 Z" id="Path" fill="#191919"></path>
                    <path d="M194.345073,193.666045 C194.345083,198.51606 197.19178,202.888038 201.556708,204.741727 C205.921636,206.595416 210.944356,205.565406 214.280938,202.132368 C217.617519,198.69933 218.610237,193.540003 216.795823,189.062067 C214.98141,184.584132 210.717532,181.670303 205.993996,181.680365 C202.900309,181.680359 199.933684,182.943925 197.748389,185.192393 C195.563095,187.440862 194.338641,190.489534 194.345073,193.666045 Z" id="Path" fill="#191919"></path>
                    <ellipse id="Oval" fill="#191919" cx="199.708466" cy="173.479491" rx="11.6733227" ry="11.9858557"></ellipse>
                    <path d="M189.92814,153.898581 C189.91834,158.748587 192.756191,163.126627 197.117363,164.98962 C201.478536,166.852614 206.503333,165.833317 209.846854,162.4074 C213.190375,158.981484 214.193527,153.824283 212.388174,149.342487 C210.58282,144.860691 206.324841,141.937776 201.601291,141.937765 C195.163834,141.937751 189.941496,147.288784 189.92814,153.898581 Z" id="Path" fill="#191919"></path>
                    <path d="M189.324547,139.229622 C188.996881,144.141246 191.629152,148.758804 195.96106,150.871464 C200.292967,152.984124 205.442898,152.161925 208.945126,148.798527 C212.447354,145.435129 213.589119,140.215037 211.823757,135.63757 C210.058395,131.060104 205.745187,128.05685 200.949245,128.065732 C194.737217,127.856716 189.534614,132.853086 189.324547,139.229622 Z" id="Path" fill="#191919"></path>
                    <path d="M311.626574,114.181047 C311.626574,114.181047 317.874243,65.3960318 274.356824,67.3396579 C245.665604,68.6030148 234.491888,71.5670446 225.120384,59.3222002 C215.74888,47.0773559 223.173995,5.87248272 262.534311,5.67812011 C301.894627,5.4837575 301.341949,51.8392398 301.341949,51.8392398 C301.341949,51.8392398 337.986932,66.75657 314.67832,109.297686 L311.626574,114.181047 Z" id="Path" fill="#191919"></path>
                </g>
            </g>
        </g>
    </g>
</svg>